<?xml version="1.0" standalone="no"?>
<!DOCTYPE svg PUBLIC "-//W3C//DTD SVG 20010904//EN"
 "http://www.w3.org/TR/2001/REC-SVG-20010904/DTD/svg10.dtd">
<svg version="1.0" xmlns="http://www.w3.org/2000/svg"
 width="640.000000pt" height="640.000000pt" viewBox="0 0 640.000000 640.000000"
 preserveAspectRatio="xMidYMid meet">

<g transform="translate(0.000000,640.000000) scale(0.100000,-0.100000)"
fill="#000000" stroke="none">
<path d="M2052 4347 c-628 -628 -1142 -1146 -1142 -1151 0 -5 516 -524 1146
-1154 l1145 -1146 1151 1151 1152 1152 -1146 1145 c-630 630 -1150 1146 -1154
1146 -5 0 -523 -514 -1152 -1143z m1338 -282 c101 -29 158 -57 228 -114 38
-31 64 -64 126 -165 10 -16 27 -70 37 -120 17 -81 19 -139 19 -518 l0 -427 76
-3 75 -3 0 -177 c0 -98 -1 -183 -1 -189 0 -9 -46 -10 -167 -7 -195 6 -221 14
-296 98 -44 49 -54 69 -77 158 -6 23 -14 42 -18 42 -5 0 -23 -36 -40 -79 -27
-66 -44 -89 -95 -138 -52 -47 -79 -63 -148 -88 -76 -27 -96 -30 -204 -30 -106
1 -129 4 -200 29 -147 53 -237 156 -274 315 -45 192 -9 382 95 496 33 36 108
92 134 100 14 4 30 11 36 16 27 22 160 59 241 69 48 5 162 10 252 10 l164 0
-5 103 c-9 166 -45 223 -161 259 -78 23 -157 20 -243 -9 -54 -18 -139 -85
-175 -138 -13 -19 -27 -35 -30 -35 -6 0 -84 74 -216 203 l-52 51 26 35 c155
211 349 296 658 286 112 -3 159 -9 235 -30z"/>
<path d="M2975 3039 c-85 -45 -105 -82 -105 -193 0 -105 18 -146 80 -180 39
-21 63 -27 117 -27 92 -1 145 15 209 61 46 35 54 45 63 90 6 28 11 100 11 160
l0 110 -168 0 c-151 0 -171 -2 -207 -21z"/>
</g>
</svg>
