<?xml version="1.0" standalone="no"?>
<!DOCTYPE svg PUBLIC "-//W3C//DTD SVG 20010904//EN"
 "http://www.w3.org/TR/2001/REC-SVG-20010904/DTD/svg10.dtd">
<svg version="1.0" xmlns="http://www.w3.org/2000/svg"
 width="9234.000000pt" height="9234.000000pt" viewBox="0 0 9234.000000 9234.000000"
 preserveAspectRatio="xMidYMid meet">

<g transform="translate(0.000000,9234.000000) scale(0.100000,-0.100000)"
fill="white" stroke="none">

<path d="M23535 91434 c-273 -41 -522 -122 -809 -266 -179 -90 -261 -138 -466
-274 -331 -220 -496 -360 -892 -762 -263 -267 -443 -471 -724 -822 -839 -1048
-1495 -2112 -2315 -3750 -796 -1593 -1314 -2824 -1999 -4745 -364 -1024 -864
-2601 -1135 -3585 -82 -295 -112 -385 -143 -421 -38 -46 -156 -98 -547 -244
-1396 -518 -2222 -861 -3090 -1284 -1090 -532 -2380 -1308 -3200 -1925 -453
-341 -970 -791 -1380 -1201 -702 -701 -1238 -1413 -1653 -2195 -342 -645 -612
-1521 -681 -2215 -42 -420 -42 -457 -22 -11100 15 -8192 10 -29979 -8 -36035
-11 -3504 -5 -5511 19 -5945 26 -485 117 -964 305 -1600 329 -1117 993 -2294
1930 -3418 203 -244 375 -428 775 -827 398 -399 601 -589 890 -838 1454 -1250
3330 -2399 5560 -3405 3188 -1437 6734 -2462 10940 -3162 576 -95 827 -132
1824 -265 1313 -175 1563 -202 2711 -290 1572 -120 2168 -134 5865 -133 3126
0 5479 21 6650 58 1013 33 1998 74 3100 130 377 19 975 48 1330 65 2229 105
3732 207 5996 410 8604 770 15819 2026 22304 3881 1180 338 2376 711 3340
1042 2202 757 4244 1587 6015 2445 2005 971 3153 1657 4283 2561 1274 1019
2089 2041 2490 3121 129 351 267 867 307 1160 22 157 31 620 16 787 -26 281
-137 749 -260 1098 -86 244 -233 562 -366 790 -147 254 -413 628 -590 830
-127 144 -747 761 -900 894 -743 649 -2081 1399 -3490 1956 -1295 512 -2806
964 -4545 1359 -439 99 -808 174 -1553 316 -798 151 -1056 194 -1957 329
-1183 178 -1384 204 -2650 350 -1223 142 -1492 169 -1860 191 -273 16 -454 31
-463 39 -28 27 247 276 465 422 215 144 1014 733 1248 919 377 300 1069 884
1371 1156 719 648 1656 1576 2259 2239 580 638 1068 1238 1737 2135 1112 1492
1933 2826 2704 4395 1316 2679 2157 5305 2579 8050 212 1380 256 1802 312
3025 19 411 16 1228 -5 1610 -62 1122 -120 1686 -252 2465 -339 2004 -900
3691 -1707 5138 -248 444 -610 1008 -927 1444 -660 905 -1612 1861 -2576 2584
-1436 1079 -3261 1859 -5143 2198 -546 99 -1181 178 -1692 211 -254 17 -1173
24 -1520 11 -1163 -40 -2477 -271 -3850 -676 -473 -140 -808 -253 -1390 -472
-212 -80 -464 -172 -560 -204 l-175 -59 -10 23 c-6 14 -10 984 -10 2852 0
2911 -2 3024 -40 3480 -92 1068 -403 2038 -928 2885 -387 626 -848 1200 -1446
1804 -808 815 -1619 1437 -2796 2141 -1131 677 -2297 1245 -3745 1825 -469
188 -681 282 -714 319 -15 17 -22 50 -33 164 -41 440 -68 691 -99 932 -19 149
-54 434 -79 635 -163 1336 -427 3040 -651 4205 -743 3868 -1629 6411 -2703
7758 -119 150 -395 430 -521 531 -291 232 -621 393 -905 443 -127 22 -547 25
-670 5 -514 -86 -1086 -356 -1526 -721 -298 -247 -730 -694 -1104 -1141 -534
-640 -1036 -1458 -1640 -2675 -512 -1030 -961 -2089 -1515 -3570 -284 -758
-329 -875 -341 -875 -18 0 -104 48 -297 164 -637 384 -1245 660 -2027 922
-784 261 -1734 489 -2540 608 -927 137 -1854 200 -2940 200 -713 0 -1144 -18
-1680 -70 -1168 -112 -2680 -440 -3716 -804 -428 -151 -711 -274 -1354 -587
-405 -198 -521 -250 -566 -255 -30 -4 -33 7 -114 402 -246 1185 -601 2535
-909 3445 -580 1720 -1168 2945 -1848 3850 -173 229 -286 365 -448 537 -417
440 -920 750 -1380 849 -74 16 -139 22 -300 24 -113 2 -218 1 -235 -1z m-9507
-19416 c6 -9 7 -32 1 -68 -14 -85 -151 -1087 -224 -1640 -99 -743 -126 -911
-164 -994 -25 -54 -69 -95 -296 -272 -256 -198 -370 -298 -565 -494 -659 -659
-1038 -1307 -1147 -1955 -25 -152 -25 -484 0 -640 93 -572 321 -1038 771
-1575 171 -205 528 -549 791 -765 1372 -1125 3647 -2135 6581 -2919 647 -173
1230 -312 2189 -522 803 -176 1031 -228 1335 -304 1254 -314 1820 -661 2243
-1374 359 -606 575 -1633 672 -3196 100 -1613 256 -2454 597 -3219 368 -828
1027 -1559 1813 -2011 659 -379 1662 -671 2510 -731 350 -24 1013 -3 1435 46
1055 123 1973 464 2635 980 365 285 688 641 900 994 251 419 432 864 564 1388
223 885 299 2127 190 3108 -117 1055 -432 1956 -955 2727 -51 76 -117 168
-147 205 -63 79 -91 122 -86 128 3 2 184 11 404 20 220 8 567 24 770 35 204
11 800 42 1325 70 2270 119 3238 194 4545 350 632 75 768 86 1190 102 372 13
578 4 681 -32 321 -111 600 -389 792 -790 165 -342 287 -827 376 -1490 43
-317 68 -585 126 -1355 71 -941 216 -1651 467 -2290 199 -504 509 -1005 858
-1381 485 -523 1217 -956 1992 -1178 691 -198 1356 -278 1948 -236 967 70
1762 292 2445 684 155 89 438 275 555 365 179 138 400 355 616 606 520 604
862 1374 1073 2416 181 895 247 1530 262 2494 12 726 -26 1261 -136 1925 -203
1226 -557 2108 -1209 3014 -51 70 -90 134 -87 141 8 22 82 67 274 169 612 324
1282 775 1858 1253 179 148 547 519 678 683 395 495 628 1013 698 1550 18 140
15 432 -5 567 -70 457 -345 1009 -753 1511 -167 206 -663 680 -969 926 -66 54
-154 128 -196 166 l-76 69 -6 518 c-8 669 -31 1156 -77 1643 -11 113 -22 256
-26 318 l-7 113 44 -6 c144 -20 275 -73 644 -260 751 -381 1641 -909 2165
-1283 906 -649 1669 -1407 2036 -2024 263 -443 374 -848 404 -1481 5 -109 14
-3337 21 -7432 12 -8060 5 -41439 -10 -42865 -5 -459 -14 -916 -20 -1015 -65
-1023 -156 -1408 -487 -2065 -249 -495 -522 -888 -997 -1435 -151 -174 -623
-648 -817 -820 -787 -697 -1739 -1367 -2825 -1987 -482 -276 -1701 -881 -2285
-1136 -2297 -999 -5009 -1820 -7900 -2391 -1813 -358 -3307 -580 -5040 -751
-1995 -196 -2816 -243 -4755 -271 -883 -13 -3174 -6 -3605 10 -1021 39 -1632
75 -2680 156 -1033 81 -1428 125 -3049 340 -990 132 -1246 172 -2342 365
-3220 568 -6497 1539 -8954 2655 -1517 689 -2935 1501 -3955 2264 -590 441
-1355 1129 -1723 1548 -791 904 -1283 1874 -1423 2808 -21 144 -27 226 -34
535 -12 498 -28 1960 -40 3730 -6 811 -15 2008 -20 2660 -23 2657 -30 5198
-36 14245 -6 9443 6 20124 26 22525 9 1178 22 3041 40 5935 14 2244 26 2804
66 3040 65 393 418 1030 846 1530 199 233 646 670 905 887 59 50 194 154 298
233 715 536 1531 1032 2490 1515 427 214 685 325 888 379 88 24 82 24 95 9z
m9377 -1947 c380 -6 1055 -15 1500 -21 871 -10 889 -11 911 -60 7 -14 42 -182
78 -375 153 -799 265 -1117 522 -1475 149 -209 440 -442 626 -502 61 -20 73
-21 116 -10 160 43 477 311 621 526 78 118 213 382 290 570 80 196 170 569
251 1050 26 155 43 234 54 245 28 27 349 32 1781 28 1396 -4 1427 -5 1442 -44
22 -56 -233 -528 -509 -941 -238 -356 -362 -508 -677 -823 -311 -310 -486
-459 -751 -636 -769 -513 -1836 -798 -2823 -753 -429 20 -772 85 -1205 229
-336 111 -605 243 -1012 497 -605 376 -971 738 -1337 1324 -220 353 -582 1009
-629 1142 -15 43 -9 51 31 44 16 -3 341 -10 720 -15z m17700 -21 c347 -6 965
-14 1374 -20 821 -10 773 -5 785 -73 3 -18 15 -111 26 -207 90 -773 359 -1482
685 -1805 160 -159 373 -291 485 -301 50 -5 65 -1 154 40 260 119 465 302 649
581 220 334 351 764 457 1505 11 80 26 168 33 195 l12 50 70 7 c185 19 2668
36 3029 21 l158 -6 -5 -32 c-11 -66 -185 -413 -323 -642 -595 -991 -1316
-1672 -2195 -2074 -441 -201 -931 -345 -1375 -403 -316 -42 -906 -47 -1194
-11 -524 65 -953 195 -1415 430 -362 184 -771 455 -1045 692 -302 261 -645
680 -895 1093 -155 256 -451 836 -490 959 l-7 24 198 -6 c110 -4 483 -11 829
-17z m31350 -11500 c323 -15 512 -38 1040 -126 1417 -238 2505 -652 3552
-1352 486 -325 963 -734 1442 -1237 654 -685 1207 -1563 1665 -2644 443 -1043
797 -2493 930 -3811 55 -541 71 -885 70 -1570 -1 -1514 -125 -2731 -434 -4256
-564 -2778 -1604 -5431 -3083 -7859 -844 -1387 -1866 -2727 -3086 -4049 -394
-427 -1197 -1211 -1635 -1597 -71 -63 -238 -210 -370 -328 -475 -422 -706
-605 -1446 -1147 -725 -530 -1227 -871 -1875 -1269 -1099 -676 -2281 -1280
-3315 -1693 -198 -79 -559 -206 -566 -200 -1 2 -4 700 -5 1552 l-4 1548 37 32
c47 41 234 147 573 326 1401 738 2779 1630 3880 2511 596 477 911 755 1515
1340 784 760 1240 1249 1771 1899 938 1148 1723 2313 2394 3555 1208 2233
2052 4808 2319 7075 165 1397 179 2494 46 3548 -184 1450 -591 2643 -1229
3596 -296 442 -653 845 -1036 1171 -931 792 -2154 1273 -3470 1366 -199 14
-1108 7 -1355 -11 -837 -58 -2269 -436 -3177 -836 -475 -209 -1062 -521 -1723
-914 -168 -99 -347 -202 -398 -227 -88 -44 -93 -46 -110 -30 -16 16 -18 81
-25 825 -10 1053 -3 2626 13 2746 18 140 25 155 98 199 233 140 1131 598 1452
739 1366 602 3067 1029 4490 1127 178 12 796 13 1055 1z m-475 -7615 c496 -75
942 -300 1192 -602 212 -256 366 -550 491 -940 271 -840 347 -2098 207 -3398
-126 -1162 -394 -2297 -812 -3435 -571 -1554 -1293 -2920 -2311 -4375 -500
-714 -1309 -1687 -1927 -2319 -520 -531 -1470 -1357 -2137 -1858 -180 -135
-773 -536 -1032 -697 -147 -91 -278 -158 -289 -146 -4 3 -10 460 -13 1013 -10
1570 -9 11919 1 12372 6 260 14 443 24 512 15 105 16 109 77 200 77 114 390
530 525 698 537 668 1186 1254 1944 1755 619 409 1166 677 1835 898 552 183
1041 292 1530 341 22 2 162 3 310 1 196 -1 302 -7 385 -20z"/>
</g>
</svg>
