<svg width="5910" height="5910" viewBox="0 0 5910 5910" fill="none" xmlns="http://www.w3.org/2000/svg">
<rect width="5910" height="5910" fill="#F5F5F5"/>
<path d="M1499.07 59.3332C1471.33 64.3998 1438.4 80.9332 1405.33 106.4C1389.2 118.933 1359.73 148.133 1340.8 170.4C1277.87 244.8 1230.8 318.667 1173.47 433.333C1122.13 536.133 1089.87 612.933 1044.67 739.333C1021.87 803.333 985.2 919.467 971.333 972C968.667 981.867 965.6 991.333 964.533 992.933C961.867 997.2 958.267 998.8 924.133 1011.33C787.2 1061.73 704.8 1100.4 609.333 1159.07C547.6 1197.07 512 1223.47 464.133 1266.53C412.133 1313.6 369.733 1365.2 339.733 1418C315.333 1460.8 298.933 1506.67 290.8 1554.8C285.6 1585.07 285.067 1612.4 285.867 1804C287.733 2224.67 288.267 3784.93 286.8 4343.33C285.2 4920.67 285.333 4961.07 289.467 4995.2C292.667 5022.27 304.133 5068.13 315.2 5098.93C339.6 5166.13 380.8 5234.27 436.933 5300.13C453.067 5319.07 501.333 5367.47 525.333 5388.8C617.867 5470.93 739.467 5546.93 882.667 5612.27C1032.93 5680.8 1188.53 5732.8 1372.67 5775.87C1460.93 5796.53 1588.13 5820.13 1668 5830.67C1685.2 5832.93 1712.27 5836.53 1728 5838.67C1785.87 5846.53 1810.67 5849.2 1880 5854.53C1970.53 5861.6 2003.87 5862.67 2169.33 5863.47C2318 5864.27 2601.6 5862.27 2672.67 5860C2745.87 5857.6 2818.8 5854.67 2868 5852C2894.8 5850.67 2924.53 5849.2 2934 5848.67C3052.53 5843.47 3156.4 5837.2 3228 5831.33C3326 5823.2 3353.87 5820.8 3404.67 5816C3847.33 5774.67 4242.93 5710.27 4591.33 5622.67C4704.93 5594.13 4804.13 5566.4 4894.67 5537.73C4907.47 5533.73 4924.67 5528.4 4932.67 5525.87C4953.73 5519.33 5016.53 5497.87 5054.67 5484C5143.87 5451.73 5217.33 5422.27 5288 5390.67C5294.27 5387.87 5304.4 5383.33 5310.67 5380.67C5365.47 5356.53 5462.67 5308 5504 5284.27C5559.47 5252.4 5585.6 5235.47 5626.13 5205.33C5725.73 5131.2 5788 5055.73 5813.87 4978C5820.8 4957.47 5826 4938 5829.47 4920C5833.33 4900 5833.73 4866.93 5830.13 4848C5819.07 4788 5799.33 4744.27 5761.47 4696C5747.6 4678.27 5702.4 4633.6 5684 4619.47C5649.47 4592.8 5608 4567.47 5560 4543.47C5506.13 4516.67 5456 4496.53 5384.67 4472.93C5304.13 4446.27 5192.8 4418 5103.33 4401.47C5088 4398.53 5064.27 4394.13 5050.67 4391.47C5037.07 4388.93 5013.73 4384.93 4998.67 4382.67C4983.6 4380.4 4955.73 4376.27 4936.67 4373.33C4891.6 4366.53 4860.8 4362.4 4817.33 4357.47C4797.87 4355.2 4769.47 4352 4754 4350.13C4706.67 4344.67 4685.6 4342.67 4662.27 4341.47C4649.87 4340.8 4639.47 4339.87 4639.07 4339.47C4637.33 4337.87 4656.13 4320.67 4667.87 4313.07C4681.07 4304.67 4741.6 4259.87 4754.67 4248.93C4758.67 4245.6 4773.2 4233.6 4786.8 4222.4C4828.53 4188.13 4869.2 4150.8 4917.47 4102.67C4986.67 4033.6 5029.87 3983.47 5091.2 3901.33C5159.2 3810.4 5211.87 3725.6 5259.33 3630.8C5347.47 3454.53 5403.87 3280.13 5431.2 3098.67C5445.47 3004.13 5447.6 2982 5450.8 2898C5452.13 2861.2 5452.13 2848.93 5450.13 2808.67C5446.27 2727.47 5440.53 2679.2 5426.8 2609.6C5399.47 2472.13 5355.87 2361.6 5290.27 2263.47C5265.33 2226.13 5249.87 2205.6 5226.67 2179.33C5166.13 2110.67 5097.87 2054 5027.33 2014C4947.07 1968.4 4859.73 1937.07 4767.33 1920.67C4734.8 1914.93 4694.8 1910 4665.33 1908.13C4637.33 1906.27 4575.2 1906.27 4546.67 1908C4451.73 1913.87 4335.47 1940.4 4233.47 1979.6C4204.53 1990.67 4185.73 1997.33 4183.2 1997.33C4181.87 1997.33 4181.73 1961.6 4182.27 1826.27C4182.93 1658.13 4182.4 1614.8 4178.67 1580.4C4172.4 1523.07 4155.47 1468 4130.13 1422.93C4089.73 1350.93 4021.2 1275.33 3942.93 1216.4C3859.07 1153.2 3738.67 1088.27 3615.07 1039.33C3570.27 1021.73 3562.93 1018.27 3562.13 1014.4C3561.73 1012.67 3560.8 1003.2 3560.13 993.333C3559.33 983.467 3557.2 963.867 3555.47 950C3553.6 936 3550.8 914.133 3549.33 901.333C3541.6 835.733 3522.53 711.467 3510.53 648.667C3485.07 514.4 3459.6 413.867 3428.53 324.667C3406.53 261.2 3381.33 207.467 3354.13 166C3323.47 119.466 3289.47 90.3998 3253.2 79.8665C3237.87 75.4665 3212.67 74.9332 3194.67 78.6665C3167.2 84.2665 3137.2 97.9998 3112.27 116.533C3085.2 136.4 3037.07 188 3009.87 226C2967.47 285.333 2918 379.867 2875.6 482.667C2852 539.867 2846.13 554.933 2828 604C2818.4 630 2810 651.733 2809.47 652.267C2808.93 652.933 2801.73 649.067 2793.6 644C2726.67 602.267 2643.87 572.133 2537.87 550.8C2441.33 531.467 2301.33 525.333 2197.33 536C2118.13 544.133 2019.2 566.4 1953.47 590.933C1928.27 600.267 1912.4 607.333 1874.13 626.4C1851.2 637.733 1840.67 642.267 1840 641.2C1839.47 640.4 1837.6 632.933 1836 624.8C1822 553.733 1795.87 452.933 1776.4 396C1753.87 329.733 1735.33 284 1712.27 238C1679.87 172.933 1639.07 117.733 1603.33 90.6665C1567.07 62.9332 1533.87 52.9332 1499.07 59.3332ZM898.133 1304.27C897.067 1310 886.533 1388 882 1422.67C877.067 1460.67 874.8 1472.8 871.867 1476.53C870.4 1478.4 861.333 1485.73 851.6 1493.07C814.133 1521.33 775.867 1566.27 759.333 1601.73C740.133 1642.93 738.133 1678.27 752.8 1721.2C772.933 1779.6 835.467 1842.13 925.333 1893.6C1038.53 1958.53 1190.93 2011.73 1384.67 2054.13C1455.2 2069.47 1469.6 2072.8 1491.33 2078.13C1570.93 2098 1607.87 2120.4 1634.67 2165.6C1657.87 2204.27 1672 2271.87 1678 2372C1684.53 2480.27 1696 2537.2 1721.6 2588.53C1742.27 2629.73 1774.27 2666.4 1813.6 2693.73C1852.93 2721.2 1908.4 2740.93 1970.93 2750C2001.87 2754.53 2049.6 2753.87 2090.67 2748.53C2176.27 2737.47 2243.6 2705.07 2287.87 2653.87C2301.6 2638.13 2304.93 2633.33 2315.73 2614.67C2335.73 2579.6 2350.27 2532.8 2356.67 2482.27C2371.6 2363.47 2357.2 2264 2313.73 2186.13C2304.93 2170.27 2294.93 2155.2 2287.6 2146.27C2284.67 2142.8 2282.53 2139.73 2282.8 2139.33C2283.07 2139.07 2295.33 2138.53 2310 2138C2324.67 2137.6 2351.33 2136.27 2369.33 2135.2C2387.33 2134.27 2437.47 2131.6 2480.67 2129.33C2581.73 2124.13 2669.6 2117.07 2736 2108.67C2771.73 2104.13 2798.27 2102.13 2822 2102.13C2845.2 2102 2848 2102.27 2855.33 2105.07C2883.73 2115.73 2905.07 2144.67 2916.4 2188C2926.27 2225.47 2931.33 2262.53 2936 2332C2941.73 2415.47 2957.87 2477.07 2987.07 2526C3014 2571.33 3047.6 2602.4 3095.87 2626.67C3118.93 2638.13 3135.47 2644.27 3160.53 2650.67C3202.13 2661.2 3236.93 2664.93 3271.2 2662.67C3351.07 2657.2 3409.2 2637.07 3464.8 2595.87C3481.87 2583.07 3507.33 2555.87 3520.93 2536C3547.33 2497.07 3563.87 2453.6 3575.33 2392.67C3585.6 2338.13 3589.07 2304.8 3590.27 2248.67C3591.33 2193.2 3588.4 2156 3579.2 2105.33C3566.67 2037.07 3543.6 1981.2 3506.8 1930C3502.53 1924.13 3498.67 1918.67 3498.13 1917.73C3497.6 1916.67 3502.93 1913.2 3514.27 1907.47C3532.67 1898.13 3565.6 1878.13 3582.4 1866.13C3625.47 1835.33 3643.73 1820.27 3663.47 1799.6C3708.8 1752.13 3730 1696.93 3722.67 1646.13C3718 1614.53 3695.47 1572.4 3666.13 1540.67C3652.8 1526.27 3628.53 1503.73 3614.27 1492.4C3608.93 1488.27 3602.53 1482.93 3599.87 1480.4L3595.07 1475.87L3594.93 1447.6C3594.93 1413.87 3592.67 1365.73 3590 1338.8C3588.93 1328.13 3588 1317.33 3588 1314.8V1310.27L3595.07 1311.2C3609.33 1312.93 3698.27 1361.2 3750 1395.33C3816.4 1439.2 3874.4 1494.4 3900.67 1538.8C3917.73 1567.6 3924 1590.53 3926.67 1633.33C3928.93 1668.93 3929.2 4838.67 3926.93 4894C3923.73 4974.27 3918.27 5001.73 3897.47 5044.53C3881.6 5076.8 3867.33 5098.27 3839.2 5132C3784.67 5197.07 3702.27 5261.6 3596 5322.27C3568.67 5337.87 3496.13 5374.13 3461.33 5389.6C3330 5448 3171.33 5498.4 3004.67 5534.67C2957.33 5544.93 2937.87 5548.8 2873.33 5560.53C2794.8 5574.8 2714.27 5586 2634.67 5593.87C2482.67 5608.93 2430.53 5611.6 2259.33 5612.93C2120.67 5614 2041.33 5611.47 1920.67 5602C1845.2 5596.13 1824.4 5593.73 1681.47 5574.53C1654.8 5570.93 1624.93 5566 1552.67 5553.2C1505.47 5544.8 1433.87 5529.2 1378.67 5515.33C1211.47 5473.2 1064.8 5421.07 945.2 5361.2C851.467 5314.4 776.533 5268 720.667 5222.13C681.333 5189.87 650.667 5160.8 629.733 5136C577.733 5074.13 548.133 5010.27 542.667 4948.67C542 4940.53 540.8 4847.33 540 4741.33C539.333 4635.33 538.133 4477.6 537.333 4390.67C535.6 4180 535.467 2455.47 537.333 2231.33C538 2136 539.333 1957.73 540 1835.33C541.467 1595.2 541.333 1598.27 548.533 1576.8C556.533 1553.2 575.2 1522 597.067 1496C610.533 1479.87 643.467 1447.73 660.533 1434.13C692.8 1408.27 739.333 1377.47 782 1353.73C833.333 1325.2 868.667 1308.13 887.2 1302.67C898.8 1299.2 899.067 1299.2 898.133 1304.27ZM1548 1426.13C1597.47 1426.4 1641.07 1427.07 1644.93 1427.47C1649.33 1427.87 1652 1428.93 1652.53 1430.13C1652.93 1431.33 1655.73 1445.2 1658.67 1461.2C1666.67 1505.2 1675.73 1529.47 1692.67 1551.6C1704.67 1567.47 1728.8 1583.87 1737.33 1582C1747.33 1579.87 1768.4 1562.53 1777.6 1548.8C1784.13 1539.47 1796.13 1514.53 1799.87 1502.93C1803.47 1491.87 1810 1461.6 1812.8 1443.2C1814.93 1428.27 1815.07 1428.27 1818.93 1427.47C1824.4 1426.4 2008.67 1426.4 2016.53 1427.47C2019.87 1428 2022.67 1429.07 2022.67 1429.87C2022.53 1435.73 2007.73 1462.93 1990.27 1489.33C1975.07 1512.27 1964.67 1524.93 1944.53 1544.8C1918.93 1570.27 1898.27 1585.47 1870.67 1599.33C1808.4 1630.67 1727.87 1640.4 1664.67 1624C1630.8 1615.2 1613.2 1607.6 1580.67 1588.13C1542.27 1564.93 1518.4 1542.8 1496.4 1510C1481.47 1487.73 1449.33 1429.73 1449.33 1425.2C1449.33 1424.27 1450.8 1424 1453.73 1424.53C1456 1425.07 1498.53 1425.73 1548 1426.13ZM2681.33 1427.47C2726.4 1427.87 2764.53 1428.4 2766.13 1428.67C2768.67 1429.2 2769.07 1430.67 2770.53 1444.93C2775.07 1489.87 2792 1536.8 2811.47 1558.53C2819.6 1567.6 2834.13 1577.73 2841.87 1580C2847.6 1581.6 2848.4 1581.47 2856.53 1577.6C2869.73 1571.33 2876.4 1566.27 2887.2 1554C2907.6 1530.67 2918.93 1498.53 2926 1445.47C2927.07 1437.07 2928.53 1429.6 2929.33 1428.8C2931.07 1427.07 3135.73 1425.87 3137.47 1427.6C3138.8 1428.93 3129.33 1448.93 3119.2 1466.27C3075.73 1540.4 3022.93 1587.2 2954.4 1612.4C2919.87 1625.07 2892.4 1630.53 2857.2 1631.6C2786 1633.87 2729.87 1615.2 2667.47 1568.8C2642.27 1550.13 2622.93 1528.4 2599.6 1492.53C2589.6 1477.2 2565.33 1429.87 2565.33 1425.6C2565.33 1425.2 2572.93 1425.33 2582.4 1425.73C2591.73 1426.27 2636.27 1426.93 2681.33 1427.47ZM4658 2164C4675.47 2165.87 4715.07 2172.27 4736 2176.67C4797.6 2189.6 4855.07 2211.2 4903.07 2239.6C4945.33 2264.67 4973.6 2286.67 5012.4 2325.07C5052.13 2364.27 5083.07 2408.27 5111.73 2466C5136 2514.8 5151.47 2557.87 5166 2616.4C5188.67 2707.87 5197.07 2790.67 5193.6 2890.8C5190.8 2969.07 5185.07 3022 5171.2 3096.67C5133.73 3298.93 5056.8 3491.33 4944.53 3664.13C4881.33 3761.6 4791.87 3869.2 4709.07 3947.6C4691.2 3964.4 4671.87 3982.4 4666 3987.47C4660.13 3992.4 4649.6 4001.73 4642.67 4008C4614 4034 4594.53 4049.2 4533.07 4093.87C4472 4138.13 4408.67 4177.6 4340.67 4213.73C4289.07 4241.07 4220.67 4271.6 4189.33 4281.33L4182 4283.6L4181.73 4184.4L4181.47 4085.2L4184.93 4082.13C4186.8 4080.4 4201.87 4071.87 4218.4 4063.33C4301.6 4020.13 4396.4 3959.2 4463.2 3906.13C4507.2 3871.2 4532.93 3848.27 4577.87 3804C4620.67 3761.87 4643.73 3737.07 4670.4 3704.93C4758.13 3599.33 4824.67 3493.2 4878 3374C4930.27 3257.33 4967.47 3127.6 4980.53 3016.67C4993.47 2907.6 4992.67 2830.67 4977.87 2748C4958.8 2642.13 4919.73 2560.93 4858 2499.33C4797.73 2439.2 4713.07 2401.87 4620.4 2394.53C4595.87 2392.53 4532.13 2393.73 4512 2396.67C4459.07 2404 4396.27 2420.8 4342.67 2441.73C4315.07 2452.53 4264.67 2478.13 4229.33 2499.33C4192.4 2521.33 4187.87 2524 4185.07 2524C4182.93 2524 4182.67 2522.27 4182.53 2506.27C4182.53 2496.67 4182.13 2449.07 4181.87 2400.67C4181.33 2313.2 4182.13 2288 4185.73 2284.4C4187.73 2282.4 4240.4 2254.53 4261.33 2244.53C4351.87 2200.8 4469.6 2169.73 4571.33 2162.67C4591.73 2161.33 4639.07 2162 4658 2164ZM4602.27 2649.47C4635.07 2653.07 4665.73 2667.87 4682.8 2688.13C4701.6 2710.4 4714.8 2740.8 4722.67 2780C4744.53 2888 4728.4 3038.53 4680.53 3173.07C4641.73 3282.27 4592.13 3376.13 4520.4 3476.67C4489.07 3520.67 4428.93 3591.33 4394.53 3624.67C4358.13 3659.87 4306.53 3704.27 4265.87 3734.93C4253.87 3744.13 4202.93 3777.87 4192.67 3783.47C4187.87 3786.13 4183.47 3787.87 4182.93 3787.47C4181.6 3786 4181.2 2939.73 4182.53 2915.2C4183.2 2903.33 4184.53 2892.27 4185.33 2890.67C4188.4 2884.8 4214.8 2849.47 4226.67 2835.33C4255.47 2800.67 4281.07 2776.4 4318.67 2748C4372.67 2707.2 4427.73 2679.87 4489.87 2662.8C4537.07 2649.87 4570.4 2645.87 4602.27 2649.47Z" fill="black"/>
</svg>
